<svg width="84" height="84" viewBox="0 0 84 84" fill="none" xmlns="http://www.w3.org/2000/svg">
<g clip-path="url(#clip0_8_2)">
<path d="M27.9996 20.3434C25.6698 21.1673 23.9998 23.3877 23.9996 25.9996C23.9996 28.6117 25.6697 30.8329 27.9996 31.6568V52.3424C25.6697 53.1662 23.9998 55.3876 23.9996 57.9996C23.9996 61.3132 26.6861 63.9994 29.9996 63.9996C32.6121 63.9996 34.8342 62.3301 35.6578 59.9996H48.3424C49.166 62.3299 51.3873 63.9995 53.9996 63.9996C56.6121 63.9996 58.8342 62.3301 59.6578 59.9996H69.2555L47.6568 81.5983C44.5327 84.7222 39.4675 84.7221 36.3434 81.5983L2.40196 47.6568C-0.722158 44.5327 -0.722082 39.4676 2.40196 36.3434L27.9996 10.7457V20.3434ZM36.3434 2.40196C39.4676 -0.722087 44.5327 -0.722157 47.6568 2.40196L81.5982 36.3434C84.7221 39.4675 84.7222 44.5327 81.5982 47.6568L73.2555 55.9996H59.6578C58.834 53.6695 56.6118 51.9996 53.9996 51.9996C51.3876 51.9998 49.1662 53.6697 48.3424 55.9996H35.6578C35.0551 54.2951 33.7043 52.9449 31.9996 52.3424V31.6568C34.3299 30.8331 35.9996 28.612 35.9996 25.9996C35.9995 23.3874 34.3297 21.1671 31.9996 20.3434V6.74571L36.3434 2.40196Z" fill="#7310b0"/>
</g>
<defs>
<clipPath id="clip0_8_2">
<rect width="84" height="84" fill="white"/>
</clipPath>
</defs>
</svg>
